<mxfile host="app.diagrams.net" agent="Mozilla/5.0 (Windows NT 10.0; Win64; x64) AppleWebKit/537.36 (KHTML, like Gecko) Chrome/134.0.0.0 Safari/537.36" version="26.1.0">
  <diagram name="PÃ¡gina-1" id="9dNB83LeFz9JYjEunmRM">
    <mxGraphModel dx="1434" dy="772" grid="1" gridSize="10" guides="1" tooltips="1" connect="1" arrows="1" fold="1" page="1" pageScale="1" pageWidth="827" pageHeight="1169" math="0" shadow="0">
      <root>
        <mxCell id="0" />
        <mxCell id="1" parent="0" />
        <mxCell id="fPCs7BV1rCsO1R0aeil8-4" style="edgeStyle=orthogonalEdgeStyle;rounded=0;orthogonalLoop=1;jettySize=auto;html=1;exitX=0.5;exitY=1;exitDx=0;exitDy=0;exitPerimeter=0;entryX=0.5;entryY=0;entryDx=0;entryDy=0;" edge="1" parent="1" source="fPCs7BV1rCsO1R0aeil8-1" target="fPCs7BV1rCsO1R0aeil8-3">
          <mxGeometry relative="1" as="geometry" />
        </mxCell>
        <mxCell id="fPCs7BV1rCsO1R0aeil8-1" value="Inicio" style="strokeWidth=2;html=1;shape=mxgraph.flowchart.start_1;whiteSpace=wrap;fillColor=#d5e8d4;strokeColor=#82b366;" vertex="1" parent="1">
          <mxGeometry x="364" y="20" width="100" height="60" as="geometry" />
        </mxCell>
        <mxCell id="fPCs7BV1rCsO1R0aeil8-2" value="Fim" style="strokeWidth=2;html=1;shape=mxgraph.flowchart.start_1;whiteSpace=wrap;fillColor=#d5e8d4;strokeColor=#82b366;" vertex="1" parent="1">
          <mxGeometry x="364" y="680" width="100" height="60" as="geometry" />
        </mxCell>
        <mxCell id="fPCs7BV1rCsO1R0aeil8-3" value="WS-NOTA1&lt;div&gt;WS-NOTA2&lt;/div&gt;&lt;div&gt;WS-MEDIA&lt;/div&gt;" style="rounded=1;whiteSpace=wrap;html=1;absoluteArcSize=1;arcSize=14;strokeWidth=2;fillColor=#f5f5f5;fontColor=#333333;strokeColor=#666666;" vertex="1" parent="1">
          <mxGeometry x="364" y="100" width="100" height="50" as="geometry" />
        </mxCell>
        <mxCell id="fPCs7BV1rCsO1R0aeil8-5" value="WS-MEDIA = (NOTA1 + NOTA2) / 2" style="rounded=1;whiteSpace=wrap;html=1;absoluteArcSize=1;arcSize=14;strokeWidth=2;fillColor=#f5f5f5;fontColor=#333333;strokeColor=#666666;" vertex="1" parent="1">
          <mxGeometry x="297" y="310" width="234" height="60" as="geometry" />
        </mxCell>
        <mxCell id="fPCs7BV1rCsO1R0aeil8-6" value="WS-NOTA1" style="html=1;strokeWidth=2;shape=manualInput;whiteSpace=wrap;rounded=1;size=26;arcSize=11;fillColor=#dae8fc;strokeColor=#6c8ebf;" vertex="1" parent="1">
          <mxGeometry x="364" y="160" width="100" height="60" as="geometry" />
        </mxCell>
        <mxCell id="fPCs7BV1rCsO1R0aeil8-10" style="edgeStyle=orthogonalEdgeStyle;rounded=0;orthogonalLoop=1;jettySize=auto;html=1;exitX=0.5;exitY=1;exitDx=0;exitDy=0;entryX=0.5;entryY=0;entryDx=0;entryDy=0;" edge="1" parent="1" source="fPCs7BV1rCsO1R0aeil8-7" target="fPCs7BV1rCsO1R0aeil8-5">
          <mxGeometry relative="1" as="geometry" />
        </mxCell>
        <mxCell id="fPCs7BV1rCsO1R0aeil8-7" value="WS-NOTA2" style="html=1;strokeWidth=2;shape=manualInput;whiteSpace=wrap;rounded=1;size=26;arcSize=11;fillColor=#dae8fc;strokeColor=#6c8ebf;" vertex="1" parent="1">
          <mxGeometry x="364" y="230" width="100" height="60" as="geometry" />
        </mxCell>
        <mxCell id="fPCs7BV1rCsO1R0aeil8-8" style="edgeStyle=orthogonalEdgeStyle;rounded=0;orthogonalLoop=1;jettySize=auto;html=1;exitX=0.5;exitY=1;exitDx=0;exitDy=0;entryX=0.5;entryY=0.167;entryDx=0;entryDy=0;entryPerimeter=0;" edge="1" parent="1" source="fPCs7BV1rCsO1R0aeil8-3" target="fPCs7BV1rCsO1R0aeil8-6">
          <mxGeometry relative="1" as="geometry" />
        </mxCell>
        <mxCell id="fPCs7BV1rCsO1R0aeil8-9" style="edgeStyle=orthogonalEdgeStyle;rounded=0;orthogonalLoop=1;jettySize=auto;html=1;exitX=0.5;exitY=1;exitDx=0;exitDy=0;entryX=0.5;entryY=0.167;entryDx=0;entryDy=0;entryPerimeter=0;" edge="1" parent="1" source="fPCs7BV1rCsO1R0aeil8-6" target="fPCs7BV1rCsO1R0aeil8-7">
          <mxGeometry relative="1" as="geometry" />
        </mxCell>
        <mxCell id="fPCs7BV1rCsO1R0aeil8-11" value="WS-MEDIA &amp;gt;= 7" style="strokeWidth=2;html=1;shape=mxgraph.flowchart.decision;whiteSpace=wrap;fillColor=#ffe6cc;strokeColor=#d79b00;" vertex="1" parent="1">
          <mxGeometry x="326" y="400" width="176" height="100" as="geometry" />
        </mxCell>
        <mxCell id="fPCs7BV1rCsO1R0aeil8-12" style="edgeStyle=orthogonalEdgeStyle;rounded=0;orthogonalLoop=1;jettySize=auto;html=1;exitX=0.5;exitY=1;exitDx=0;exitDy=0;entryX=0.5;entryY=0;entryDx=0;entryDy=0;entryPerimeter=0;" edge="1" parent="1" source="fPCs7BV1rCsO1R0aeil8-5" target="fPCs7BV1rCsO1R0aeil8-11">
          <mxGeometry relative="1" as="geometry" />
        </mxCell>
        <mxCell id="fPCs7BV1rCsO1R0aeil8-13" value="APROVADO" style="strokeWidth=2;html=1;shape=mxgraph.flowchart.display;whiteSpace=wrap;fillColor=#e1d5e7;strokeColor=#9673a6;" vertex="1" parent="1">
          <mxGeometry x="502" y="520" width="100" height="60" as="geometry" />
        </mxCell>
        <mxCell id="fPCs7BV1rCsO1R0aeil8-14" style="edgeStyle=orthogonalEdgeStyle;rounded=0;orthogonalLoop=1;jettySize=auto;html=1;exitX=1;exitY=0.5;exitDx=0;exitDy=0;exitPerimeter=0;entryX=0.5;entryY=0;entryDx=0;entryDy=0;entryPerimeter=0;" edge="1" parent="1" source="fPCs7BV1rCsO1R0aeil8-11" target="fPCs7BV1rCsO1R0aeil8-13">
          <mxGeometry relative="1" as="geometry" />
        </mxCell>
        <mxCell id="fPCs7BV1rCsO1R0aeil8-15" value="S" style="edgeLabel;html=1;align=center;verticalAlign=middle;resizable=0;points=[];" vertex="1" connectable="0" parent="fPCs7BV1rCsO1R0aeil8-14">
          <mxGeometry x="-0.2667" y="1" relative="1" as="geometry">
            <mxPoint as="offset" />
          </mxGeometry>
        </mxCell>
        <mxCell id="fPCs7BV1rCsO1R0aeil8-16" value="" style="strokeWidth=2;html=1;shape=mxgraph.flowchart.start_2;whiteSpace=wrap;fillColor=#f5f5f5;gradientColor=#b3b3b3;strokeColor=#666666;" vertex="1" parent="1">
          <mxGeometry x="396" y="600" width="36" height="40" as="geometry" />
        </mxCell>
        <mxCell id="fPCs7BV1rCsO1R0aeil8-17" style="edgeStyle=orthogonalEdgeStyle;rounded=0;orthogonalLoop=1;jettySize=auto;html=1;exitX=0.5;exitY=1;exitDx=0;exitDy=0;exitPerimeter=0;entryX=0.5;entryY=0;entryDx=0;entryDy=0;entryPerimeter=0;" edge="1" parent="1" source="fPCs7BV1rCsO1R0aeil8-11" target="fPCs7BV1rCsO1R0aeil8-16">
          <mxGeometry relative="1" as="geometry" />
        </mxCell>
        <mxCell id="fPCs7BV1rCsO1R0aeil8-18" value="N" style="edgeLabel;html=1;align=center;verticalAlign=middle;resizable=0;points=[];" vertex="1" connectable="0" parent="fPCs7BV1rCsO1R0aeil8-17">
          <mxGeometry x="-0.38" y="1" relative="1" as="geometry">
            <mxPoint as="offset" />
          </mxGeometry>
        </mxCell>
        <mxCell id="fPCs7BV1rCsO1R0aeil8-19" style="edgeStyle=orthogonalEdgeStyle;rounded=0;orthogonalLoop=1;jettySize=auto;html=1;exitX=0.5;exitY=1;exitDx=0;exitDy=0;exitPerimeter=0;entryX=1;entryY=0.5;entryDx=0;entryDy=0;entryPerimeter=0;" edge="1" parent="1" source="fPCs7BV1rCsO1R0aeil8-13" target="fPCs7BV1rCsO1R0aeil8-16">
          <mxGeometry relative="1" as="geometry" />
        </mxCell>
        <mxCell id="fPCs7BV1rCsO1R0aeil8-20" style="edgeStyle=orthogonalEdgeStyle;rounded=0;orthogonalLoop=1;jettySize=auto;html=1;exitX=0.5;exitY=1;exitDx=0;exitDy=0;exitPerimeter=0;entryX=0.5;entryY=0;entryDx=0;entryDy=0;entryPerimeter=0;" edge="1" parent="1" source="fPCs7BV1rCsO1R0aeil8-16" target="fPCs7BV1rCsO1R0aeil8-2">
          <mxGeometry relative="1" as="geometry" />
        </mxCell>
      </root>
    </mxGraphModel>
  </diagram>
</mxfile>
